<mxfile host="app.diagrams.net" modified="2023-06-14T18:49:24.047Z" agent="Mozilla/5.0 (Windows NT 10.0; Win64; x64; rv:109.0) Gecko/20100101 Firefox/114.0" etag="T6Oxw44zKbedWt7P4pCk" version="21.4.0" type="github">
  <diagram id="C5RBs43oDa-KdzZeNtuy" name="Page-1">
    <mxGraphModel dx="794" dy="386" grid="1" gridSize="10" guides="1" tooltips="1" connect="1" arrows="1" fold="1" page="1" pageScale="1" pageWidth="827" pageHeight="1169" math="0" shadow="0">
      <root>
        <mxCell id="WIyWlLk6GJQsqaUBKTNV-0" />
        <mxCell id="WIyWlLk6GJQsqaUBKTNV-1" parent="WIyWlLk6GJQsqaUBKTNV-0" />
        <mxCell id="c_pt0YBGKiUtGB9aewrk-6" value="" style="edgeStyle=orthogonalEdgeStyle;rounded=0;orthogonalLoop=1;jettySize=auto;html=1;" edge="1" parent="WIyWlLk6GJQsqaUBKTNV-1" source="c_pt0YBGKiUtGB9aewrk-4" target="c_pt0YBGKiUtGB9aewrk-5">
          <mxGeometry relative="1" as="geometry" />
        </mxCell>
        <mxCell id="c_pt0YBGKiUtGB9aewrk-12" style="edgeStyle=orthogonalEdgeStyle;rounded=0;orthogonalLoop=1;jettySize=auto;html=1;" edge="1" parent="WIyWlLk6GJQsqaUBKTNV-1" source="c_pt0YBGKiUtGB9aewrk-4" target="c_pt0YBGKiUtGB9aewrk-18">
          <mxGeometry relative="1" as="geometry">
            <mxPoint x="200" y="230" as="targetPoint" />
          </mxGeometry>
        </mxCell>
        <mxCell id="c_pt0YBGKiUtGB9aewrk-13" style="edgeStyle=orthogonalEdgeStyle;rounded=0;orthogonalLoop=1;jettySize=auto;html=1;" edge="1" parent="WIyWlLk6GJQsqaUBKTNV-1" source="c_pt0YBGKiUtGB9aewrk-4" target="c_pt0YBGKiUtGB9aewrk-14">
          <mxGeometry relative="1" as="geometry">
            <mxPoint x="560" y="230" as="targetPoint" />
          </mxGeometry>
        </mxCell>
        <mxCell id="c_pt0YBGKiUtGB9aewrk-16" style="edgeStyle=orthogonalEdgeStyle;rounded=0;orthogonalLoop=1;jettySize=auto;html=1;" edge="1" parent="WIyWlLk6GJQsqaUBKTNV-1" source="c_pt0YBGKiUtGB9aewrk-4" target="c_pt0YBGKiUtGB9aewrk-17">
          <mxGeometry relative="1" as="geometry">
            <mxPoint x="380" y="180" as="targetPoint" />
          </mxGeometry>
        </mxCell>
        <mxCell id="c_pt0YBGKiUtGB9aewrk-4" value="Inventario materias primas" style="rounded=1;whiteSpace=wrap;html=1;" vertex="1" parent="WIyWlLk6GJQsqaUBKTNV-1">
          <mxGeometry x="320" y="260" width="120" height="60" as="geometry" />
        </mxCell>
        <mxCell id="c_pt0YBGKiUtGB9aewrk-7" style="edgeStyle=orthogonalEdgeStyle;rounded=0;orthogonalLoop=1;jettySize=auto;html=1;" edge="1" parent="WIyWlLk6GJQsqaUBKTNV-1" source="c_pt0YBGKiUtGB9aewrk-5" target="c_pt0YBGKiUtGB9aewrk-19">
          <mxGeometry relative="1" as="geometry">
            <mxPoint x="380" y="540" as="targetPoint" />
          </mxGeometry>
        </mxCell>
        <mxCell id="c_pt0YBGKiUtGB9aewrk-5" value="&lt;div&gt;Inventario&lt;/div&gt;&lt;div&gt;Productos&lt;br&gt;&lt;/div&gt;" style="whiteSpace=wrap;html=1;rounded=1;" vertex="1" parent="WIyWlLk6GJQsqaUBKTNV-1">
          <mxGeometry x="320" y="400" width="120" height="60" as="geometry" />
        </mxCell>
        <mxCell id="c_pt0YBGKiUtGB9aewrk-14" value="&lt;div&gt;Elementos de sujecion&lt;/div&gt;" style="rounded=1;whiteSpace=wrap;html=1;" vertex="1" parent="WIyWlLk6GJQsqaUBKTNV-1">
          <mxGeometry x="500" y="200" width="120" height="60" as="geometry" />
        </mxCell>
        <mxCell id="c_pt0YBGKiUtGB9aewrk-17" value="Herrajeria" style="rounded=1;whiteSpace=wrap;html=1;" vertex="1" parent="WIyWlLk6GJQsqaUBKTNV-1">
          <mxGeometry x="320" y="150" width="120" height="60" as="geometry" />
        </mxCell>
        <mxCell id="c_pt0YBGKiUtGB9aewrk-100" style="edgeStyle=orthogonalEdgeStyle;rounded=0;orthogonalLoop=1;jettySize=auto;html=1;" edge="1" parent="WIyWlLk6GJQsqaUBKTNV-1" source="c_pt0YBGKiUtGB9aewrk-18" target="c_pt0YBGKiUtGB9aewrk-99">
          <mxGeometry relative="1" as="geometry" />
        </mxCell>
        <mxCell id="c_pt0YBGKiUtGB9aewrk-101" style="edgeStyle=orthogonalEdgeStyle;rounded=0;orthogonalLoop=1;jettySize=auto;html=1;" edge="1" parent="WIyWlLk6GJQsqaUBKTNV-1" source="c_pt0YBGKiUtGB9aewrk-18" target="c_pt0YBGKiUtGB9aewrk-98">
          <mxGeometry relative="1" as="geometry" />
        </mxCell>
        <mxCell id="c_pt0YBGKiUtGB9aewrk-18" value="Maderas" style="rounded=1;whiteSpace=wrap;html=1;" vertex="1" parent="WIyWlLk6GJQsqaUBKTNV-1">
          <mxGeometry x="140" y="200" width="120" height="60" as="geometry" />
        </mxCell>
        <mxCell id="c_pt0YBGKiUtGB9aewrk-26" style="edgeStyle=orthogonalEdgeStyle;rounded=0;orthogonalLoop=1;jettySize=auto;html=1;" edge="1" parent="WIyWlLk6GJQsqaUBKTNV-1">
          <mxGeometry relative="1" as="geometry">
            <mxPoint x="500" y="540" as="targetPoint" />
            <mxPoint x="440" y="540" as="sourcePoint" />
          </mxGeometry>
        </mxCell>
        <mxCell id="c_pt0YBGKiUtGB9aewrk-27" style="edgeStyle=orthogonalEdgeStyle;rounded=0;orthogonalLoop=1;jettySize=auto;html=1;" edge="1" parent="WIyWlLk6GJQsqaUBKTNV-1" source="c_pt0YBGKiUtGB9aewrk-19">
          <mxGeometry relative="1" as="geometry">
            <mxPoint x="260" y="540" as="targetPoint" />
          </mxGeometry>
        </mxCell>
        <mxCell id="c_pt0YBGKiUtGB9aewrk-40" style="edgeStyle=orthogonalEdgeStyle;rounded=0;orthogonalLoop=1;jettySize=auto;html=1;" edge="1" parent="WIyWlLk6GJQsqaUBKTNV-1" source="c_pt0YBGKiUtGB9aewrk-19" target="c_pt0YBGKiUtGB9aewrk-38">
          <mxGeometry relative="1" as="geometry" />
        </mxCell>
        <mxCell id="c_pt0YBGKiUtGB9aewrk-41" style="edgeStyle=orthogonalEdgeStyle;rounded=0;orthogonalLoop=1;jettySize=auto;html=1;entryX=0.5;entryY=0;entryDx=0;entryDy=0;" edge="1" parent="WIyWlLk6GJQsqaUBKTNV-1" source="c_pt0YBGKiUtGB9aewrk-19" target="c_pt0YBGKiUtGB9aewrk-39">
          <mxGeometry relative="1" as="geometry" />
        </mxCell>
        <mxCell id="c_pt0YBGKiUtGB9aewrk-19" value="Mueblerias" style="rounded=1;whiteSpace=wrap;html=1;" vertex="1" parent="WIyWlLk6GJQsqaUBKTNV-1">
          <mxGeometry x="320" y="510" width="120" height="60" as="geometry" />
        </mxCell>
        <mxCell id="c_pt0YBGKiUtGB9aewrk-65" style="edgeStyle=orthogonalEdgeStyle;rounded=0;orthogonalLoop=1;jettySize=auto;html=1;entryX=0;entryY=0.5;entryDx=0;entryDy=0;" edge="1" parent="WIyWlLk6GJQsqaUBKTNV-1" source="c_pt0YBGKiUtGB9aewrk-32" target="c_pt0YBGKiUtGB9aewrk-64">
          <mxGeometry relative="1" as="geometry" />
        </mxCell>
        <mxCell id="c_pt0YBGKiUtGB9aewrk-68" style="edgeStyle=orthogonalEdgeStyle;rounded=0;orthogonalLoop=1;jettySize=auto;html=1;entryX=0;entryY=0.5;entryDx=0;entryDy=0;" edge="1" parent="WIyWlLk6GJQsqaUBKTNV-1" source="c_pt0YBGKiUtGB9aewrk-32" target="c_pt0YBGKiUtGB9aewrk-67">
          <mxGeometry relative="1" as="geometry" />
        </mxCell>
        <mxCell id="c_pt0YBGKiUtGB9aewrk-70" style="edgeStyle=orthogonalEdgeStyle;rounded=0;orthogonalLoop=1;jettySize=auto;html=1;entryX=0;entryY=0.5;entryDx=0;entryDy=0;" edge="1" parent="WIyWlLk6GJQsqaUBKTNV-1" source="c_pt0YBGKiUtGB9aewrk-32" target="c_pt0YBGKiUtGB9aewrk-69">
          <mxGeometry relative="1" as="geometry" />
        </mxCell>
        <mxCell id="c_pt0YBGKiUtGB9aewrk-32" value="&lt;div&gt;Puertas&lt;/div&gt;" style="rounded=1;whiteSpace=wrap;html=1;" vertex="1" parent="WIyWlLk6GJQsqaUBKTNV-1">
          <mxGeometry x="500" y="510" width="120" height="60" as="geometry" />
        </mxCell>
        <mxCell id="c_pt0YBGKiUtGB9aewrk-34" value="Closets" style="rounded=1;whiteSpace=wrap;html=1;" vertex="1" parent="WIyWlLk6GJQsqaUBKTNV-1">
          <mxGeometry x="140" y="510" width="120" height="60" as="geometry" />
        </mxCell>
        <mxCell id="c_pt0YBGKiUtGB9aewrk-72" style="edgeStyle=orthogonalEdgeStyle;rounded=0;orthogonalLoop=1;jettySize=auto;html=1;" edge="1" parent="WIyWlLk6GJQsqaUBKTNV-1" source="c_pt0YBGKiUtGB9aewrk-38" target="c_pt0YBGKiUtGB9aewrk-71">
          <mxGeometry relative="1" as="geometry" />
        </mxCell>
        <mxCell id="c_pt0YBGKiUtGB9aewrk-89" style="edgeStyle=orthogonalEdgeStyle;rounded=0;orthogonalLoop=1;jettySize=auto;html=1;entryX=0.5;entryY=0;entryDx=0;entryDy=0;" edge="1" parent="WIyWlLk6GJQsqaUBKTNV-1" source="c_pt0YBGKiUtGB9aewrk-38" target="c_pt0YBGKiUtGB9aewrk-77">
          <mxGeometry relative="1" as="geometry" />
        </mxCell>
        <mxCell id="c_pt0YBGKiUtGB9aewrk-38" value="&lt;div&gt;Mueble&lt;/div&gt;" style="rounded=1;whiteSpace=wrap;html=1;" vertex="1" parent="WIyWlLk6GJQsqaUBKTNV-1">
          <mxGeometry x="200" y="610" width="120" height="60" as="geometry" />
        </mxCell>
        <mxCell id="c_pt0YBGKiUtGB9aewrk-86" style="edgeStyle=orthogonalEdgeStyle;rounded=0;orthogonalLoop=1;jettySize=auto;html=1;entryX=0.5;entryY=0;entryDx=0;entryDy=0;" edge="1" parent="WIyWlLk6GJQsqaUBKTNV-1" source="c_pt0YBGKiUtGB9aewrk-39" target="c_pt0YBGKiUtGB9aewrk-84">
          <mxGeometry relative="1" as="geometry" />
        </mxCell>
        <mxCell id="c_pt0YBGKiUtGB9aewrk-88" style="edgeStyle=orthogonalEdgeStyle;rounded=0;orthogonalLoop=1;jettySize=auto;html=1;entryX=0;entryY=0.5;entryDx=0;entryDy=0;" edge="1" parent="WIyWlLk6GJQsqaUBKTNV-1" source="c_pt0YBGKiUtGB9aewrk-39" target="c_pt0YBGKiUtGB9aewrk-87">
          <mxGeometry relative="1" as="geometry" />
        </mxCell>
        <mxCell id="c_pt0YBGKiUtGB9aewrk-95" style="edgeStyle=orthogonalEdgeStyle;rounded=0;orthogonalLoop=1;jettySize=auto;html=1;" edge="1" parent="WIyWlLk6GJQsqaUBKTNV-1" source="c_pt0YBGKiUtGB9aewrk-39" target="c_pt0YBGKiUtGB9aewrk-83">
          <mxGeometry relative="1" as="geometry" />
        </mxCell>
        <mxCell id="c_pt0YBGKiUtGB9aewrk-39" value="Especiales" style="rounded=1;whiteSpace=wrap;html=1;" vertex="1" parent="WIyWlLk6GJQsqaUBKTNV-1">
          <mxGeometry x="440" y="610" width="120" height="60" as="geometry" />
        </mxCell>
        <mxCell id="c_pt0YBGKiUtGB9aewrk-64" value="Alcoba" style="text;html=1;strokeColor=none;fillColor=none;align=center;verticalAlign=middle;whiteSpace=wrap;rounded=0;" vertex="1" parent="WIyWlLk6GJQsqaUBKTNV-1">
          <mxGeometry x="660" y="480" width="60" height="30" as="geometry" />
        </mxCell>
        <mxCell id="c_pt0YBGKiUtGB9aewrk-67" value="Principal" style="text;html=1;strokeColor=none;fillColor=none;align=center;verticalAlign=middle;whiteSpace=wrap;rounded=0;" vertex="1" parent="WIyWlLk6GJQsqaUBKTNV-1">
          <mxGeometry x="660" y="525" width="60" height="30" as="geometry" />
        </mxCell>
        <mxCell id="c_pt0YBGKiUtGB9aewrk-69" value="&lt;div&gt;Baño&lt;/div&gt;" style="text;html=1;strokeColor=none;fillColor=none;align=center;verticalAlign=middle;whiteSpace=wrap;rounded=0;" vertex="1" parent="WIyWlLk6GJQsqaUBKTNV-1">
          <mxGeometry x="660" y="570" width="60" height="30" as="geometry" />
        </mxCell>
        <mxCell id="c_pt0YBGKiUtGB9aewrk-90" style="edgeStyle=orthogonalEdgeStyle;rounded=0;orthogonalLoop=1;jettySize=auto;html=1;" edge="1" parent="WIyWlLk6GJQsqaUBKTNV-1">
          <mxGeometry relative="1" as="geometry">
            <mxPoint x="60" y="619" as="targetPoint" />
            <mxPoint x="100" y="639" as="sourcePoint" />
          </mxGeometry>
        </mxCell>
        <mxCell id="c_pt0YBGKiUtGB9aewrk-92" style="edgeStyle=orthogonalEdgeStyle;rounded=0;orthogonalLoop=1;jettySize=auto;html=1;" edge="1" parent="WIyWlLk6GJQsqaUBKTNV-1">
          <mxGeometry relative="1" as="geometry">
            <mxPoint x="60" y="660" as="targetPoint" />
            <mxPoint x="100" y="640" as="sourcePoint" />
          </mxGeometry>
        </mxCell>
        <mxCell id="c_pt0YBGKiUtGB9aewrk-71" value="&lt;div&gt;Cocina&lt;/div&gt;" style="text;html=1;strokeColor=none;fillColor=none;align=center;verticalAlign=middle;whiteSpace=wrap;rounded=0;" vertex="1" parent="WIyWlLk6GJQsqaUBKTNV-1">
          <mxGeometry x="100" y="625" width="60" height="30" as="geometry" />
        </mxCell>
        <mxCell id="c_pt0YBGKiUtGB9aewrk-77" value="Baño" style="text;html=1;strokeColor=none;fillColor=none;align=center;verticalAlign=middle;whiteSpace=wrap;rounded=0;" vertex="1" parent="WIyWlLk6GJQsqaUBKTNV-1">
          <mxGeometry x="230" y="697" width="60" height="30" as="geometry" />
        </mxCell>
        <mxCell id="c_pt0YBGKiUtGB9aewrk-83" value="Escaleras" style="text;html=1;strokeColor=none;fillColor=none;align=center;verticalAlign=middle;whiteSpace=wrap;rounded=0;" vertex="1" parent="WIyWlLk6GJQsqaUBKTNV-1">
          <mxGeometry x="414" y="720" width="60" height="30" as="geometry" />
        </mxCell>
        <mxCell id="c_pt0YBGKiUtGB9aewrk-84" value="&lt;div&gt;Juegos de mesa&lt;/div&gt;" style="text;html=1;strokeColor=none;fillColor=none;align=center;verticalAlign=middle;whiteSpace=wrap;rounded=0;" vertex="1" parent="WIyWlLk6GJQsqaUBKTNV-1">
          <mxGeometry x="530" y="720" width="60" height="30" as="geometry" />
        </mxCell>
        <mxCell id="c_pt0YBGKiUtGB9aewrk-87" value="&lt;div&gt;Cuadros&lt;/div&gt;&lt;div&gt;o&lt;/div&gt;&lt;div&gt;Marcos&lt;br&gt;&lt;/div&gt;" style="text;html=1;strokeColor=none;fillColor=none;align=center;verticalAlign=middle;whiteSpace=wrap;rounded=0;" vertex="1" parent="WIyWlLk6GJQsqaUBKTNV-1">
          <mxGeometry x="601" y="655" width="60" height="30" as="geometry" />
        </mxCell>
        <mxCell id="c_pt0YBGKiUtGB9aewrk-91" value="Flotante" style="text;html=1;strokeColor=none;fillColor=none;align=center;verticalAlign=middle;whiteSpace=wrap;rounded=0;" vertex="1" parent="WIyWlLk6GJQsqaUBKTNV-1">
          <mxGeometry x="32" y="586" width="60" height="30" as="geometry" />
        </mxCell>
        <mxCell id="c_pt0YBGKiUtGB9aewrk-93" value="A piso" style="text;html=1;strokeColor=none;fillColor=none;align=center;verticalAlign=middle;whiteSpace=wrap;rounded=0;" vertex="1" parent="WIyWlLk6GJQsqaUBKTNV-1">
          <mxGeometry x="31" y="663" width="60" height="30" as="geometry" />
        </mxCell>
        <mxCell id="c_pt0YBGKiUtGB9aewrk-104" style="edgeStyle=orthogonalEdgeStyle;rounded=0;orthogonalLoop=1;jettySize=auto;html=1;" edge="1" parent="WIyWlLk6GJQsqaUBKTNV-1" source="c_pt0YBGKiUtGB9aewrk-98">
          <mxGeometry relative="1" as="geometry">
            <mxPoint x="61" y="280" as="targetPoint" />
          </mxGeometry>
        </mxCell>
        <mxCell id="c_pt0YBGKiUtGB9aewrk-98" value="RH" style="text;html=1;strokeColor=none;fillColor=none;align=center;verticalAlign=middle;whiteSpace=wrap;rounded=0;" vertex="1" parent="WIyWlLk6GJQsqaUBKTNV-1">
          <mxGeometry x="31" y="230" width="60" height="30" as="geometry" />
        </mxCell>
        <mxCell id="c_pt0YBGKiUtGB9aewrk-102" style="edgeStyle=orthogonalEdgeStyle;rounded=0;orthogonalLoop=1;jettySize=auto;html=1;" edge="1" parent="WIyWlLk6GJQsqaUBKTNV-1" source="c_pt0YBGKiUtGB9aewrk-99">
          <mxGeometry relative="1" as="geometry">
            <mxPoint x="60" y="180" as="targetPoint" />
          </mxGeometry>
        </mxCell>
        <mxCell id="c_pt0YBGKiUtGB9aewrk-99" value="MDF" style="text;html=1;strokeColor=none;fillColor=none;align=center;verticalAlign=middle;whiteSpace=wrap;rounded=0;" vertex="1" parent="WIyWlLk6GJQsqaUBKTNV-1">
          <mxGeometry x="30" y="200" width="60" height="30" as="geometry" />
        </mxCell>
        <mxCell id="c_pt0YBGKiUtGB9aewrk-103" value="Tablero de fibra de densidad media" style="text;html=1;strokeColor=none;fillColor=none;align=center;verticalAlign=middle;whiteSpace=wrap;rounded=0;" vertex="1" parent="WIyWlLk6GJQsqaUBKTNV-1">
          <mxGeometry x="29" y="137" width="60" height="30" as="geometry" />
        </mxCell>
        <mxCell id="c_pt0YBGKiUtGB9aewrk-105" value="&#xa;Humedad Relativa&#xa;&#xa;" style="text;html=1;strokeColor=none;fillColor=none;align=center;verticalAlign=middle;whiteSpace=wrap;rounded=0;" vertex="1" parent="WIyWlLk6GJQsqaUBKTNV-1">
          <mxGeometry x="33" y="289" width="60" height="30" as="geometry" />
        </mxCell>
      </root>
    </mxGraphModel>
  </diagram>
</mxfile>
